<svg width="100" height="38" viewBox="0 0 100 38" fill="none" xmlns="http://www.w3.org/2000/svg">
<path fill-rule="evenodd" clip-rule="evenodd" d="M0 18.0791V0H19.0802V4.1721H5.18229V7.01144H12.4846V11.1835H5.18229V13.907H19.0802V18.0791H0ZM40.5101 13.907V18.0791H21.4593V13.4724L33.5316 4.1721H21.4298V0H40.5101V4.66464L28.4671 13.907H40.5101ZM42.8596 11.1835V7.01139H53.1948V11.1835H42.8596ZM77.0096 18.0791H71.474L70.0607 15.6454H59.2839L57.9 18.0791H52.3349L62.0811 0H67.2634L77.0096 18.0791ZM67.9701 11.4443L64.6722 5.50489L61.4333 11.4443H67.9701ZM78.5936 7.53296H83.8348V13.8491H94.3466L94.8177 13.4724V4.4908L94.3466 4.14313H78.5936V0H97.4089C97.7033 0 98.0027 0.0820891 98.3069 0.24627C98.6112 0.41045 98.886 0.618088 99.1314 0.869187C99.3768 1.12029 99.5829 1.39553 99.7497 1.69492C99.9166 1.9943 100 2.2792 100 2.54962V14.6313C100 15.2494 99.9068 15.7806 99.7203 16.2248C99.5338 16.6691 99.2835 17.0264 98.9694 17.2968C98.6554 17.5672 98.302 17.7652 97.9094 17.8908C97.5168 18.0163 97.1046 18.0791 96.6728 18.0791H78.5936V7.53296Z" fill="black"/>
<g opacity="0.4">
<path d="M65.5498 37.3273L68.9848 26.751H63.8323L64.9848 23.2256H79.6741L78.5215 26.751H73.2334L69.7984 37.3273H65.5498Z" fill="black"/>
<path d="M87.4124 32.5589L95.4576 23.2256H100L87.9096 37.3273H83.774L80.8588 23.2256H85.4011L87.4124 32.5589Z" fill="black"/>
</g>
</svg>
