<svg width="25" height="24" viewBox="0 0 25 24" fill="none" xmlns="http://www.w3.org/2000/svg">
<path d="M10.1666 0H2.16665C1.81302 0 1.47389 0.140476 1.22384 0.390524C0.973789 0.640573 0.833313 0.979711 0.833313 1.33333V9.33333C0.833313 9.68696 0.973789 10.0261 1.22384 10.2761C1.47389 10.5262 1.81302 10.6667 2.16665 10.6667H10.1666C10.5203 10.6667 10.8594 10.5262 11.1095 10.2761C11.3595 10.0261 11.5 9.68696 11.5 9.33333V1.33333C11.5 0.979711 11.3595 0.640573 11.1095 0.390524C10.8594 0.140476 10.5203 0 10.1666 0ZM23.5 0H15.5C15.1464 0 14.8072 0.140476 14.5572 0.390524C14.3071 0.640573 14.1666 0.979711 14.1666 1.33333V9.33333C14.1666 9.68696 14.3071 10.0261 14.5572 10.2761C14.8072 10.5262 15.1464 10.6667 15.5 10.6667H23.5C23.8536 10.6667 24.1927 10.5262 24.4428 10.2761C24.6928 10.0261 24.8333 9.68696 24.8333 9.33333V1.33333C24.8333 0.979711 24.6928 0.640573 24.4428 0.390524C24.1927 0.140476 23.8536 0 23.5 0ZM10.1666 13.3333H2.16665C1.81302 13.3333 1.47389 13.4738 1.22384 13.7239C0.973789 13.9739 0.833313 14.313 0.833313 14.6667V22.6667C0.833313 23.0203 0.973789 23.3594 1.22384 23.6095C1.47389 23.8595 1.81302 24 2.16665 24H10.1666C10.5203 24 10.8594 23.8595 11.1095 23.6095C11.3595 23.3594 11.5 23.0203 11.5 22.6667V14.6667C11.5 14.313 11.3595 13.9739 11.1095 13.7239C10.8594 13.4738 10.5203 13.3333 10.1666 13.3333ZM20.8333 14.6667H18.1666V17.3333H15.5V20H18.1666V22.6667H20.8333V20H23.5V17.3333H20.8333V14.6667Z" fill="black"/>
</svg>
