<svg width="32" height="33" viewBox="0 0 32 33" fill="none" xmlns="http://www.w3.org/2000/svg">
<g clip-path="url(#clip0_1_85)">
<path d="M24.6239 11.1203C24.6239 10.6195 24.4289 10.1486 24.0748 9.79453L22.7048 8.42453C22.3507 8.07042 21.8798 7.87537 21.379 7.87537C20.8782 7.87537 20.4074 8.07042 20.0533 8.42453L0.549164 27.9287C0.195054 28.2829 0 28.7537 0 29.2544C0 29.7552 0.195054 30.2261 0.549164 30.5802L1.91917 31.9502C2.27328 32.3043 2.74413 32.4994 3.24492 32.4994C3.74571 32.4994 4.21657 32.3043 4.57068 31.9502L24.0748 12.446C24.4289 12.0919 24.6239 11.6211 24.6239 11.1203ZM3.68678 31.0664C3.44316 31.31 3.04662 31.31 2.80294 31.0664L1.433 29.6964C1.18932 29.4527 1.18932 29.0563 1.433 28.8126L5.42183 24.8238L7.67561 27.0775L3.68678 31.0664ZM23.1909 11.5622L19.2021 15.551L16.9483 13.2972L20.9372 9.30843C21.059 9.18656 21.219 9.12569 21.3791 9.12569C21.5391 9.12569 21.6992 9.18662 21.821 9.30843L23.1909 10.6784C23.4346 10.922 23.4346 11.3185 23.1909 11.5622Z" fill="#000"/>
<path d="M31.939 19.8105C31.7759 19.3086 31.3296 18.9843 30.8019 18.9843H28.373L27.6225 16.6743C27.4594 16.1724 27.0131 15.8481 26.4854 15.8481C25.9577 15.8481 25.5113 16.1724 25.3483 16.6743L24.5978 18.9843H22.1689C21.6412 18.9843 21.1948 19.3086 21.0318 19.8105C20.8687 20.3123 21.0392 20.837 21.4661 21.1472L23.4311 22.5749L22.6805 24.8849C22.5175 25.3867 22.688 25.9115 23.1149 26.2216C23.3284 26.3767 23.573 26.4543 23.8177 26.4543C24.0623 26.4543 24.307 26.3767 24.5204 26.2216L26.4854 24.794L28.4504 26.2216C28.8773 26.5317 29.429 26.5318 29.8559 26.2217C30.2828 25.9115 30.4533 25.3869 30.2903 24.8849L29.5397 22.575L31.5046 21.1473C31.9316 20.837 32.1021 20.3123 31.939 19.8105ZM28.4376 21.8304C28.2185 21.9896 28.1269 22.2717 28.2105 22.5292L29.0498 25.112L26.8527 23.5158C26.7432 23.4362 26.6143 23.3964 26.4854 23.3964C26.3564 23.3964 26.2276 23.4362 26.118 23.5158L23.921 25.112L24.7602 22.5292C24.8438 22.2717 24.7522 21.9896 24.5331 21.8304L22.3361 20.2342H25.0518C25.3226 20.2342 25.5625 20.0598 25.6462 19.8023L26.4854 17.2195L27.3246 19.8023C27.4083 20.0598 27.6482 20.2342 27.919 20.2342H30.6347L28.4376 21.8304Z" fill="#000"/>
<path d="M8.93862 5.27309L10.4041 6.33779L9.84427 8.0606C9.6779 8.57264 9.85189 9.10793 10.2874 9.42441C10.5052 9.58265 10.7549 9.66178 11.0044 9.66171C11.254 9.66171 11.5036 9.58259 11.7214 9.42441L13.1869 8.35971L14.6524 9.42441C15.088 9.7409 15.6508 9.74096 16.0864 9.42441C16.522 9.10799 16.6959 8.57264 16.5296 8.0606L15.9698 6.33786L17.4353 5.27315C17.8708 4.95673 18.0447 4.42138 17.8784 3.90934C17.712 3.3973 17.2566 3.06643 16.7182 3.06643H14.9069L14.3471 1.3437C14.1807 0.831593 13.7254 0.500732 13.1869 0.500732C12.6485 0.500732 12.1932 0.831593 12.0268 1.34363L11.467 3.06637H9.65559C9.11724 3.06637 8.66182 3.39723 8.49545 3.90921C8.32908 4.42125 8.50308 4.9566 8.93862 5.27309ZM11.9211 4.31632C12.1919 4.31632 12.4318 4.14195 12.5155 3.88446L13.187 1.81818L13.8583 3.88446C13.942 4.14195 14.182 4.31632 14.4528 4.31632L16.6255 4.31638L14.8677 5.59345C14.6487 5.75257 14.5571 6.03468 14.6407 6.29223L15.312 8.35858L13.5542 7.08151C13.4447 7.00195 13.3158 6.96214 13.1869 6.96214C13.0579 6.96214 12.9291 7.00195 12.8195 7.08151L11.0617 8.35852L11.7331 6.29223C11.8167 6.03468 11.7251 5.75263 11.5061 5.59345L9.7484 4.31632H11.9211Z" fill="#000"/>
<path d="M25.6393 5.47369L26.8362 5.66324L27.0257 6.86006C27.098 7.31604 27.4528 7.67097 27.9088 7.74315C27.9651 7.75209 28.021 7.7564 28.0766 7.7564C28.4714 7.7564 28.8378 7.53678 29.0216 7.17617L29.5717 6.09653L30.7684 6.28609C31.2245 6.35833 31.6716 6.13047 31.8812 5.71911C32.0908 5.30775 32.0123 4.81203 31.6859 4.4856L30.8291 3.62876L31.3792 2.54912C31.5888 2.13777 31.5102 1.64204 31.1838 1.31561C30.8574 0.98919 30.3617 0.910694 29.9503 1.12025L28.8706 1.67035L28.0138 0.81351C27.6874 0.487149 27.1917 0.40859 26.7803 0.618206C26.3689 0.827822 26.1411 1.27499 26.2133 1.73097L26.4029 2.92773L25.3232 3.47783C24.9119 3.68745 24.684 4.13462 24.7563 4.5906C24.8284 5.04652 25.1834 5.40144 25.6393 5.47369ZM27.375 3.83526C27.6162 3.71232 27.7509 3.44802 27.7085 3.1806L27.5382 2.10545L28.3079 2.87517C28.4993 3.0666 28.7923 3.11304 29.0336 2.9901L30.0035 2.49594L29.5093 3.46583C29.3864 3.70707 29.4328 4.00006 29.6242 4.19149L30.3939 4.96121L29.3188 4.7909C29.0515 4.74878 28.7871 4.88321 28.6641 5.12445L28.17 6.09435L27.9997 5.0192C27.9573 4.75178 27.7476 4.54204 27.4802 4.49966L26.4051 4.32936L27.375 3.83526Z" fill="#000"/>
</g>
<defs>
<clipPath id="clip0_1_85">
<rect width="32" height="32" fill="white" transform="translate(0 0.5)"/>
</clipPath>
</defs>
</svg>
