<svg width="33" height="33" viewBox="0 0 33 33" fill="none" xmlns="http://www.w3.org/2000/svg">
<path d="M8.57669 1.5C6.6467 1.5 5.0867 3.07001 5.0867 4.98999C5.0867 6.91998 6.6467 8.47998 8.57669 8.47998C10.4967 8.47998 12.0667 6.91998 12.0667 4.98999C12.0667 3.07001 10.4967 1.5 8.57669 1.5Z" fill="#000"/>
<path d="M2.66672 17.1H14.4767C15.0367 17.1 15.4767 16.65 15.4767 16.1C15.4767 12.33 12.4067 9.26001 8.63669 9.26001H8.50675C4.73673 9.26001 1.66672 12.33 1.66672 16.1C1.66672 16.65 2.11673 17.1 2.66672 17.1Z" fill="#000"/>
<path d="M24.7567 15.8999C22.8367 15.8999 21.2667 17.4699 21.2667 19.39C21.2667 21.3199 22.8367 22.8799 24.7567 22.8799C26.6867 22.8799 28.2467 21.3199 28.2467 19.39C28.2467 17.4699 26.6867 15.8999 24.7567 15.8999Z" fill="#000"/>
<path d="M18.8567 31.4999H30.6667C31.2167 31.4999 31.6667 31.0499 31.6667 30.4999C31.6667 26.7299 28.5967 23.6599 24.8267 23.6599H24.6967C20.9267 23.6599 17.8567 26.7299 17.8567 30.4999C17.8567 31.0499 18.2967 31.4999 18.8567 31.4999Z" fill="#000"/>
<path d="M22.6667 5.99121C24.321 5.99121 25.6667 7.33691 25.6667 8.99121V13.1787C25.6667 13.731 26.114 14.1787 26.6667 14.1787C27.2194 14.1787 27.6667 13.731 27.6667 13.1787V8.99121C27.6667 6.23437 25.4236 3.99121 22.6667 3.99121H16.6667C16.114 3.99121 15.6667 4.43896 15.6667 4.99121C15.6667 5.54346 16.114 5.99121 16.6667 5.99121H22.6667Z" fill="#000"/>
<path d="M6.66672 18.8213C6.11399 18.8213 5.66672 19.269 5.66672 19.8213V24.0088C5.66672 26.7656 7.90988 29.0088 10.6667 29.0088H15.2468C15.7995 29.0088 16.2468 28.561 16.2468 28.0088C16.2468 27.4565 15.7995 27.0088 15.2468 27.0088H10.6667C9.01242 27.0088 7.66672 25.6631 7.66672 24.0088V19.8213C7.66672 19.269 7.21945 18.8213 6.66672 18.8213Z" fill="#000"/>
</svg>
